<svg xmlns="http://www.w3.org/2000/svg" xmlns:xlink="http://www.w3.org/1999/xlink" version="1.1" x="0px" y="0px" viewBox="0 0 100 125" style="enable-background:new 0 0 100 100;" xml:space="preserve"><path d="M94,69.7h-3.8v-3.5c0-4-3.2-7.2-7.2-7.2c-4,0-7.2,3.2-7.2,7.2v3.5h-3.8c-1.1,0-2,0.8-2,1.8l0.1,15c0,1.1,0.8,2,1.8,2h22.3  c1,0,1.8-0.9,1.8-2l0.1-15C96,70.5,95.1,69.7,94,69.7z M83,84.7c-1.3,0-2.4-1.1-2.4-2.4c0-1.3,1.1-2.4,2.4-2.4  c1.3,0,2.4,1.1,2.4,2.4C85.4,83.6,84.3,84.7,83,84.7z M86.2,69.7h-6.5v-3.5c0-1.8,1.4-3.2,3.2-3.2c1.8,0,3.2,1.4,3.2,3.2V69.7z"/><path d="M83.6,13H16.2C8.1,13,1.5,19.6,1.5,27.6v38.7c0,8.1,6.6,14.6,14.6,14.6h50.2l-0.1-9.4c0-3,2.5-5.4,5.6-5.4h0.2  C72.2,60.2,77,55.4,83,55.4c5.9,0,10.8,4.8,10.8,10.7H94c1.6,0,3.1,0.7,4.1,1.7c0.1-0.5,0.1-1,0.1-1.6V27.6  C98.2,19.6,91.7,13,83.6,13z M40.5,61.5v-29L62,47L40.5,61.5z"/></svg>